999
"DXF R12 Output" (www.mydxf.blogspot.com)
 0 
SECTION
 2 
HEADER
 9 
$ACADVER
 1 
AC1009
 9 
$EXTMIN
 10 
 0 
 20 
 0 
 9 
$EXTMAX
 10 
 8.5 
 20 
 11 
 0 
ENDSEC
 0 
SECTION
 2 
ENTITIES
0
LINE
8
Layer 1
10
0.793749
20
297.793749
11
-0.793749
21
296.206251
0
LINE
8
Layer 1
10
0.000000
20
298.322915
11
0.000000
21
295.677085
0
LINE
8
Layer 1
10
2.116664
20
295.941668
11
1.058332
21
294.883336
0
LINE
8
Layer 1
10
1.587498
20
296.470834
11
0.529166
21
295.412502
0
LINE
8
Layer 1
10
1.058332
20
297.000000
11
0.000000
21
295.941668
0
LINE
8
0
10
119.699852
20
292.497931
11
119.616775
21
293.124132
0
LINE
8
0
10
119.616775
20
293.124132
11
119.378314
21
293.697929
0
LINE
8
0
10
119.378314
20
293.697929
11
119.000622
21
294.191341
0
LINE
8
0
10
119.000622
20
294.191341
11
118.499854
21
294.576389
0
LINE
8
0
10
118.499854
20
294.576389
11
117.916009
21
294.817543
0
LINE
8
0
10
117.916009
20
294.817543
11
117.299855
21
294.897927
0
LINE
8
0
10
117.299855
20
294.897927
11
116.683702
21
294.817543
0
LINE
8
0
10
116.683702
20
294.817543
11
116.099857
21
294.576389
0
LINE
8
0
10
116.099857
20
294.576389
11
115.599089
21
294.191341
0
LINE
8
0
10
115.599089
20
294.191341
11
115.221397
21
293.697929
0
LINE
8
0
10
115.221397
20
293.697929
11
114.982935
21
293.124132
0
LINE
8
0
10
114.982935
20
293.124132
11
114.899858
21
292.497931
0
LINE
8
0
10
114.899858
20
292.497931
11
114.982935
21
291.871729
0
LINE
8
0
10
114.982935
20
291.871729
11
115.221397
21
291.297932
0
LINE
8
0
10
115.221397
20
291.297932
11
115.599089
21
290.804520
0
LINE
8
0
10
115.599089
20
290.804520
11
116.099857
21
290.419472
0
LINE
8
0
10
116.099857
20
290.419472
11
116.683702
21
290.178318
0
LINE
8
0
10
116.683702
20
290.178318
11
117.299855
21
290.097934
0
LINE
8
0
10
117.299855
20
290.097934
11
117.916009
21
290.178318
0
LINE
8
0
10
117.916009
20
290.178318
11
118.499854
21
290.419472
0
LINE
8
0
10
118.499854
20
290.419472
11
119.000622
21
290.804520
0
LINE
8
0
10
119.000622
20
290.804520
11
119.378314
21
291.297932
0
LINE
8
0
10
119.378314
20
291.297932
11
119.616775
21
291.871729
0
LINE
8
0
10
119.616775
20
291.871729
11
119.699852
21
292.497931
0
LINE
8
0
10
119.699852
20
292.497931
11
119.699852
21
292.497931
0
LINE
8
0
10
85.999794
20
295.997926
11
85.999794
21
258.997944
0
LINE
8
0
10
101.499872
20
243.497977
11
101.424026
21
245.029960
0
LINE
8
0
10
101.424026
20
245.029960
11
101.199292
21
246.535994
0
LINE
8
0
10
101.199292
20
246.535994
11
100.320006
21
249.429563
0
LINE
8
0
10
100.320006
20
249.429563
11
98.895693
21
252.097375
0
LINE
8
0
10
98.895693
20
252.097375
11
97.989676
21
253.321212
0
LINE
8
0
10
97.989676
20
253.321212
11
96.960033
21
254.458119
0
LINE
8
0
10
96.960033
20
254.458119
11
95.823126
21
255.487763
0
LINE
8
0
10
95.823126
20
255.487763
11
94.599288
21
256.393779
0
LINE
8
0
10
94.599288
20
256.393779
11
91.931477
21
257.818092
0
LINE
8
0
10
91.931477
20
257.818092
11
89.037908
21
258.697378
0
LINE
8
0
10
89.037908
20
258.697378
11
87.531874
21
258.922111
0
LINE
8
0
10
87.531874
20
258.922111
11
85.999891
21
258.997958
0
LINE
8
0
10
101.499860
20
243.497878
11
101.499860
21
3.498078
0
LINE
8
0
10
101.499872
20
3.498279
11
101.621026
21
2.585069
0
LINE
8
0
10
101.621026
20
2.585069
11
101.968783
21
1.748282
0
LINE
8
0
10
101.968783
20
1.748282
11
102.519583
21
1.028722
0
LINE
8
0
10
102.519583
20
1.028722
11
103.249870
21
0.467195
0
LINE
8
0
10
103.249870
20
0.467195
11
104.101311
21
0.115512
0
LINE
8
0
10
104.101311
20
0.115512
11
104.999868
21
-0.001716
0
LINE
8
0
10
104.999868
20
-0.001716
11
105.898425
21
0.115512
0
LINE
8
0
10
105.898425
20
0.115512
11
106.749866
21
0.467195
0
LINE
8
0
10
106.749866
20
0.467195
11
107.480152
21
1.028722
0
LINE
8
0
10
107.480152
20
1.028722
11
108.030953
21
1.748282
0
LINE
8
0
10
108.030953
20
1.748282
11
108.378709
21
2.585069
0
LINE
8
0
10
108.378709
20
2.585069
11
108.499863
21
3.498280
0
LINE
8
0
10
108.499932
20
243.497878
11
108.499932
21
3.498078
0
LINE
8
0
10
123.999843
20
258.997958
11
122.467860
21
258.922111
0
LINE
8
0
10
122.467860
20
258.922111
11
120.961826
21
258.697378
0
LINE
8
0
10
120.961826
20
258.697378
11
118.068257
21
257.818092
0
LINE
8
0
10
118.068257
20
257.818092
11
115.400446
21
256.393779
0
LINE
8
0
10
115.400446
20
256.393779
11
114.176608
21
255.487762
0
LINE
8
0
10
114.176608
20
255.487762
11
113.039702
21
254.458118
0
LINE
8
0
10
113.039702
20
254.458118
11
112.010058
21
253.321211
0
LINE
8
0
10
112.010058
20
253.321211
11
111.104041
21
252.097373
0
LINE
8
0
10
111.104041
20
252.097373
11
109.679728
21
249.429562
0
LINE
8
0
10
109.679728
20
249.429562
11
108.800443
21
246.535993
0
LINE
8
0
10
108.800443
20
246.535993
11
108.575710
21
245.029959
0
LINE
8
0
10
108.575710
20
245.029959
11
108.499863
21
243.497976
0
LINE
8
0
10
123.999733
20
258.997944
11
123.999733
21
295.997926
0
LINE
8
0
10
85.999794
20
295.997926
11
123.999733
21
295.997926
0
LINE
8
0
10
94.999886
20
292.497931
11
94.916809
21
293.124132
0
LINE
8
0
10
94.916809
20
293.124132
11
94.678348
21
293.697929
0
LINE
8
0
10
94.678348
20
293.697929
11
94.300656
21
294.191341
0
LINE
8
0
10
94.300656
20
294.191341
11
93.799888
21
294.576389
0
LINE
8
0
10
93.799888
20
294.576389
11
93.216043
21
294.817543
0
LINE
8
0
10
93.216043
20
294.817543
11
92.599889
21
294.897927
0
LINE
8
0
10
92.599889
20
294.897927
11
91.983736
21
294.817543
0
LINE
8
0
10
91.983736
20
294.817543
11
91.399891
21
294.576389
0
LINE
8
0
10
91.399891
20
294.576389
11
90.899123
21
294.191341
0
LINE
8
0
10
90.899123
20
294.191341
11
90.521431
21
293.697929
0
LINE
8
0
10
90.521431
20
293.697929
11
90.282970
21
293.124132
0
LINE
8
0
10
90.282970
20
293.124132
11
90.199892
21
292.497931
0
LINE
8
0
10
90.199892
20
292.497931
11
90.282970
21
291.871729
0
LINE
8
0
10
90.282970
20
291.871729
11
90.521431
21
291.297932
0
LINE
8
0
10
90.521431
20
291.297932
11
90.899123
21
290.804520
0
LINE
8
0
10
90.899123
20
290.804520
11
91.399891
21
290.419472
0
LINE
8
0
10
91.399891
20
290.419472
11
91.983736
21
290.178318
0
LINE
8
0
10
91.983736
20
290.178318
11
92.599889
21
290.097934
0
LINE
8
0
10
92.599889
20
290.097934
11
93.216043
21
290.178318
0
LINE
8
0
10
93.216043
20
290.178318
11
93.799888
21
290.419472
0
LINE
8
0
10
93.799888
20
290.419472
11
94.300656
21
290.804520
0
LINE
8
0
10
94.300656
20
290.804520
11
94.678348
21
291.297932
0
LINE
8
0
10
94.678348
20
291.297932
11
94.916809
21
291.871729
0
LINE
8
0
10
94.916809
20
291.871729
11
94.999886
21
292.497931
0
LINE
8
0
10
94.999886
20
292.497931
11
94.999886
21
292.497931
0
LINE
8
0
10
119.699852
20
267.497962
11
119.616775
21
268.124164
0
LINE
8
0
10
119.616775
20
268.124164
11
119.378314
21
268.697961
0
LINE
8
0
10
119.378314
20
268.697961
11
119.000622
21
269.191373
0
LINE
8
0
10
119.000622
20
269.191373
11
118.499854
21
269.576420
0
LINE
8
0
10
118.499854
20
269.576420
11
117.916009
21
269.817574
0
LINE
8
0
10
117.916009
20
269.817574
11
117.299855
21
269.897959
0
LINE
8
0
10
117.299855
20
269.897959
11
116.683702
21
269.817574
0
LINE
8
0
10
116.683702
20
269.817574
11
116.099857
21
269.576420
0
LINE
8
0
10
116.099857
20
269.576420
11
115.599089
21
269.191373
0
LINE
8
0
10
115.599089
20
269.191373
11
115.221397
21
268.697961
0
LINE
8
0
10
115.221397
20
268.697961
11
114.982935
21
268.124164
0
LINE
8
0
10
114.982935
20
268.124164
11
114.899858
21
267.497962
0
LINE
8
0
10
114.899858
20
267.497962
11
114.982935
21
266.871760
0
LINE
8
0
10
114.982935
20
266.871760
11
115.221397
21
266.297964
0
LINE
8
0
10
115.221397
20
266.297964
11
115.599089
21
265.804551
0
LINE
8
0
10
115.599089
20
265.804551
11
116.099857
21
265.419504
0
LINE
8
0
10
116.099857
20
265.419504
11
116.683702
21
265.178350
0
LINE
8
0
10
116.683702
20
265.178350
11
117.299855
21
265.097965
0
LINE
8
0
10
117.299855
20
265.097965
11
117.916009
21
265.178350
0
LINE
8
0
10
117.916009
20
265.178350
11
118.499854
21
265.419504
0
LINE
8
0
10
118.499854
20
265.419504
11
119.000622
21
265.804551
0
LINE
8
0
10
119.000622
20
265.804551
11
119.378314
21
266.297964
0
LINE
8
0
10
119.378314
20
266.297964
11
119.616775
21
266.871760
0
LINE
8
0
10
119.616775
20
266.871760
11
119.699852
21
267.497962
0
LINE
8
0
10
119.699852
20
267.497962
11
119.699852
21
267.497962
0
LINE
8
0
10
94.999886
20
267.497962
11
94.916809
21
268.124164
0
LINE
8
0
10
94.916809
20
268.124164
11
94.678348
21
268.697961
0
LINE
8
0
10
94.678348
20
268.697961
11
94.300656
21
269.191373
0
LINE
8
0
10
94.300656
20
269.191373
11
93.799888
21
269.576420
0
LINE
8
0
10
93.799888
20
269.576420
11
93.216043
21
269.817574
0
LINE
8
0
10
93.216043
20
269.817574
11
92.599889
21
269.897959
0
LINE
8
0
10
92.599889
20
269.897959
11
91.983736
21
269.817574
0
LINE
8
0
10
91.983736
20
269.817574
11
91.399891
21
269.576420
0
LINE
8
0
10
91.399891
20
269.576420
11
90.899123
21
269.191373
0
LINE
8
0
10
90.899123
20
269.191373
11
90.521431
21
268.697961
0
LINE
8
0
10
90.521431
20
268.697961
11
90.282970
21
268.124164
0
LINE
8
0
10
90.282970
20
268.124164
11
90.199892
21
267.497962
0
LINE
8
0
10
90.199892
20
267.497962
11
90.282970
21
266.871760
0
LINE
8
0
10
90.282970
20
266.871760
11
90.521431
21
266.297964
0
LINE
8
0
10
90.521431
20
266.297964
11
90.899123
21
265.804551
0
LINE
8
0
10
90.899123
20
265.804551
11
91.399891
21
265.419504
0
LINE
8
0
10
91.399891
20
265.419504
11
91.983736
21
265.178350
0
LINE
8
0
10
91.983736
20
265.178350
11
92.599889
21
265.097965
0
LINE
8
0
10
92.599889
20
265.097965
11
93.216043
21
265.178350
0
LINE
8
0
10
93.216043
20
265.178350
11
93.799888
21
265.419504
0
LINE
8
0
10
93.799888
20
265.419504
11
94.300656
21
265.804551
0
LINE
8
0
10
94.300656
20
265.804551
11
94.678348
21
266.297964
0
LINE
8
0
10
94.678348
20
266.297964
11
94.916809
21
266.871760
0
LINE
8
0
10
94.916809
20
266.871760
11
94.999886
21
267.497962
0
LINE
8
0
10
94.999886
20
267.497962
11
94.999886
21
267.497962
 0 
ENDSEC
 0 
EOF