<?xml version="1.0" encoding="UTF-8" standalone="no"?>
<svg
   viewBox="0 0 793.7007874015749 1122.5196850393702"
   width="793.7007874015749"
   height="1122.5196850393702"
   version="1.1"
   id="svg16"
   sodipodi:docname="end effector 1.svg"
   inkscape:export-filename="end effector.dxf.png"
   inkscape:export-xdpi="96"
   inkscape:export-ydpi="96"
   inkscape:version="1.3 (0e150ed6c4, 2023-07-21)"
   xmlns:inkscape="http://www.inkscape.org/namespaces/inkscape"
   xmlns:sodipodi="http://sodipodi.sourceforge.net/DTD/sodipodi-0.dtd"
   xmlns="http://www.w3.org/2000/svg"
   xmlns:svg="http://www.w3.org/2000/svg">
  <sodipodi:namedview
     id="namedview16"
     pagecolor="#ffffff"
     bordercolor="#000000"
     borderopacity="0.25"
     inkscape:showpageshadow="2"
     inkscape:pageopacity="0.0"
     inkscape:pagecheckerboard="0"
     inkscape:deskcolor="#d1d1d1"
     inkscape:zoom="0.97890842"
     inkscape:cx="377.97203"
     inkscape:cy="336.59941"
     inkscape:window-width="1920"
     inkscape:window-height="991"
     inkscape:window-x="-9"
     inkscape:window-y="-9"
     inkscape:window-maximized="1"
     inkscape:current-layer="g16" />
  <desc
     id="desc1">end effector.dxf - scale = 1.000000, origin = (0.000000, 0.000000), method = manual</desc>
  <defs
     id="defs4">
    <marker
       id="DistanceX"
       orient="auto"
       refX="0.0"
       refY="0.0"
       style="overflow:visible">
      <path
         d="M 3,-3 L -3,3 M 0,-5 L  0,5"
         style="stroke:#000000; stroke-width:0.5"
         id="path1" />
    </marker>
    <pattern
       id="Hatch"
       patternUnits="userSpaceOnUse"
       width="8"
       height="8"
       x="0"
       y="0">
      <path
         d="M8 4 l-4,4"
         stroke="#000000"
         stroke-width="0.25"
         linecap="square"
         id="path2" />
      <path
         d="M6 2 l-4,4"
         stroke="#000000"
         stroke-width="0.25"
         linecap="square"
         id="path3" />
      <path
         d="M4 0 l-4,4"
         stroke="#000000"
         stroke-width="0.25"
         linecap="square"
         id="path4" />
    </pattern>
    <symbol
       id="*Model_Space" />
    <symbol
       id="*Paper_Space" />
    <symbol
       id="*Paper_Space0" />
  </defs>
  <g
     inkscape:groupmode="layer"
     inkscape:label="0"
     id="g16">
    <path
       d="M 452.409460,17.015717 A 9.070866,9.070866 -0.000000 0, 0 434.267728,17.015717 A 9.070866,9.070866 -0.000000 0, 0 452.409460,17.015717 z"
       style="fill:none;stroke:#000000;stroke-width:7.142"
       id="path5" />
    <path
       style="fill:none;stroke:#000000;stroke-width:7.142"
       d="M 325.039 3.78737 L 325.039 143.63"
       id="path6" />
    <path
       d="M 383.622047,202.212624 A 58.582677,58.582677 -0.000000 0 0 325.039367,143.629946"
       style="fill:none;stroke:#000000;stroke-width:7.142"
       id="path7" />
    <path
       style="fill:none;stroke:#000000;stroke-width:7.142"
       d="M 383.622 202.213 L 383.622 1109.3"
       id="path8" />
    <path
       d="M 383.622047,1109.299239 A 13.228346,13.228346 -0.000000 0 0 410.078740,1109.299238"
       style="fill:none;stroke:#000000;stroke-width:7.142"
       id="path9" />
    <path
       style="fill:none;stroke:#000000;stroke-width:7.142"
       d="M 410.079 202.213 L 410.079 1109.3"
       id="path10" />
    <path
       d="M 468.661414,143.629946 A 58.582677,58.582677 -0.000000 0 0 410.078740,202.212629"
       style="fill:none;stroke:#000000;stroke-width:7.142"
       id="path11" />
    <path
       style="fill:none;stroke:#000000;stroke-width:7.142"
       d="M 468.661 143.63 L 468.661 3.78737"
       id="path12" />
    <path
       style="fill:none;stroke:#000000;stroke-width:7.142"
       d="M 325.039 3.78737 L 468.661 3.78737"
       id="path13" />
    <path
       d="M 359.055141,17.015717 A 9.070866,9.070866 -0.000000 0, 0 340.913409,17.015717 A 9.070866,9.070866 -0.000000 0, 0 359.055141,17.015717 z"
       style="fill:none;stroke:#000000;stroke-width:7.142"
       id="path14" />
    <path
       d="M 452.409460,111.503906 A 9.070866,9.070866 -0.000000 0, 0 434.267728,111.503906 A 9.070866,9.070866 -0.000000 0, 0 452.409460,111.503906 z"
       style="fill:none;stroke:#000000;stroke-width:7.142"
       id="path15" />
    <path
       d="M 359.055141,111.503906 A 9.070866,9.070866 -0.000000 0, 0 340.913409,111.503906 A 9.070866,9.070866 -0.000000 0, 0 359.055141,111.503906 z"
       style="fill:none;stroke:#000000;stroke-width:7.142"
       id="path16" />
  </g>
</svg>
