999
"DXF R12 Output" (www.mydxf.blogspot.com)
 0 
SECTION
 2 
HEADER
 9 
$ACADVER
 1 
AC1009
 9 
$EXTMIN
 10 
 0 
 20 
 0 
 9 
$EXTMAX
 10 
 8.5 
 20 
 11 
 0 
ENDSEC
 0 
SECTION
 2 
ENTITIES
0
LINE
8
Layer 1
10
0.793749
20
297.793749
11
-0.793749
21
296.206251
0
LINE
8
Layer 1
10
0.000000
20
298.322915
11
0.000000
21
295.677085
0
LINE
8
Layer 1
10
2.116664
20
295.941668
11
1.058332
21
294.883336
0
LINE
8
Layer 1
10
1.587498
20
296.470834
11
0.529166
21
295.412502
0
LINE
8
Layer 1
10
1.058332
20
297.000000
11
0.000000
21
295.941668
0
LINE
8
Layer 1
10
0.793749
20
297.793749
11
-0.793749
21
296.206251
0
LINE
8
Layer 1
10
0.000000
20
298.322915
11
0.000000
21
295.677085
0
LINE
8
Layer 1
10
2.116664
20
295.941668
11
1.058332
21
294.883336
0
LINE
8
Layer 1
10
1.587498
20
296.470834
11
0.529166
21
295.412502
0
LINE
8
Layer 1
10
1.058332
20
297.000000
11
0.000000
21
295.941668
0
LINE
8
0
10
119.699852
20
283.000018
11
119.616775
21
283.626219
0
LINE
8
0
10
119.616775
20
283.626219
11
119.378314
21
284.200016
0
LINE
8
0
10
119.378314
20
284.200016
11
119.000622
21
284.693428
0
LINE
8
0
10
119.000622
20
284.693428
11
118.499854
21
285.078476
0
LINE
8
0
10
118.499854
20
285.078476
11
117.916009
21
285.319630
0
LINE
8
0
10
117.916009
20
285.319630
11
117.299855
21
285.400015
0
LINE
8
0
10
117.299855
20
285.400015
11
116.683702
21
285.319630
0
LINE
8
0
10
116.683702
20
285.319630
11
116.099857
21
285.078476
0
LINE
8
0
10
116.099857
20
285.078476
11
115.599089
21
284.693428
0
LINE
8
0
10
115.599089
20
284.693428
11
115.221397
21
284.200016
0
LINE
8
0
10
115.221397
20
284.200016
11
114.982935
21
283.626219
0
LINE
8
0
10
114.982935
20
283.626219
11
114.899858
21
283.000018
0
LINE
8
0
10
114.899858
20
283.000018
11
114.982935
21
282.373816
0
LINE
8
0
10
114.982935
20
282.373816
11
115.221397
21
281.800019
0
LINE
8
0
10
115.221397
20
281.800019
11
115.599089
21
281.306607
0
LINE
8
0
10
115.599089
20
281.306607
11
116.099857
21
280.921559
0
LINE
8
0
10
116.099857
20
280.921559
11
116.683702
21
280.680405
0
LINE
8
0
10
116.683702
20
280.680405
11
117.299855
21
280.600021
0
LINE
8
0
10
117.299855
20
280.600021
11
117.916009
21
280.680405
0
LINE
8
0
10
117.916009
20
280.680405
11
118.499854
21
280.921559
0
LINE
8
0
10
118.499854
20
280.921559
11
119.000622
21
281.306607
0
LINE
8
0
10
119.000622
20
281.306607
11
119.378314
21
281.800019
0
LINE
8
0
10
119.378314
20
281.800019
11
119.616775
21
282.373816
0
LINE
8
0
10
119.616775
20
282.373816
11
119.699852
21
283.000018
0
LINE
8
0
10
119.699852
20
283.000018
11
119.699852
21
283.000018
0
LINE
8
0
10
85.999794
20
286.500024
11
85.999794
21
249.499943
0
LINE
8
0
10
101.499872
20
234.000079
11
101.424025
21
235.532062
0
LINE
8
0
10
101.424025
20
235.532062
11
101.199292
21
237.038096
0
LINE
8
0
10
101.199292
20
237.038096
11
100.320006
21
239.931665
0
LINE
8
0
10
100.320006
20
239.931665
11
98.895693
21
242.599477
0
LINE
8
0
10
98.895693
20
242.599477
11
97.989676
21
243.823314
0
LINE
8
0
10
97.989676
20
243.823314
11
96.960033
21
244.960221
0
LINE
8
0
10
96.960033
20
244.960221
11
95.823126
21
245.989865
0
LINE
8
0
10
95.823126
20
245.989865
11
94.599288
21
246.895881
0
LINE
8
0
10
94.599288
20
246.895881
11
91.931477
21
248.320194
0
LINE
8
0
10
91.931477
20
248.320194
11
89.037908
21
249.199480
0
LINE
8
0
10
89.037908
20
249.199480
11
87.531874
21
249.424213
0
LINE
8
0
10
87.531874
20
249.424213
11
85.999891
21
249.500060
0
LINE
8
0
10
101.499860
20
234.000142
11
101.499860
21
13.999377
0
LINE
8
0
10
101.499872
20
14.000356
11
101.621026
21
13.087146
0
LINE
8
0
10
101.621026
20
13.087146
11
101.968783
21
12.250359
0
LINE
8
0
10
101.968783
20
12.250359
11
102.519583
21
11.530799
0
LINE
8
0
10
102.519583
20
11.530799
11
103.249870
21
10.969271
0
LINE
8
0
10
103.249870
20
10.969271
11
104.101311
21
10.617589
0
LINE
8
0
10
104.101311
20
10.617589
11
104.999868
21
10.500361
0
LINE
8
0
10
104.999868
20
10.500361
11
105.898425
21
10.617589
0
LINE
8
0
10
105.898425
20
10.617589
11
106.749866
21
10.969272
0
LINE
8
0
10
106.749866
20
10.969272
11
107.480152
21
11.530799
0
LINE
8
0
10
107.480152
20
11.530799
11
108.030953
21
12.250359
0
LINE
8
0
10
108.030953
20
12.250359
11
108.378709
21
13.087146
0
LINE
8
0
10
108.378709
20
13.087146
11
108.499863
21
14.000357
0
LINE
8
0
10
108.499932
20
234.000142
11
108.499932
21
13.999377
0
LINE
8
0
10
123.999843
20
249.500060
11
122.467860
21
249.424213
0
LINE
8
0
10
122.467860
20
249.424213
11
120.961826
21
249.199480
0
LINE
8
0
10
120.961826
20
249.199480
11
118.068257
21
248.320194
0
LINE
8
0
10
118.068257
20
248.320194
11
115.400446
21
246.895881
0
LINE
8
0
10
115.400446
20
246.895881
11
114.176609
21
245.989864
0
LINE
8
0
10
114.176609
20
245.989864
11
113.039702
21
244.960220
0
LINE
8
0
10
113.039702
20
244.960220
11
112.010058
21
243.823313
0
LINE
8
0
10
112.010058
20
243.823313
11
111.104041
21
242.599475
0
LINE
8
0
10
111.104041
20
242.599475
11
109.679729
21
239.931664
0
LINE
8
0
10
109.679729
20
239.931664
11
108.800443
21
237.038095
0
LINE
8
0
10
108.800443
20
237.038095
11
108.575710
21
235.532061
0
LINE
8
0
10
108.575710
20
235.532061
11
108.499863
21
234.000078
0
LINE
8
0
10
123.999733
20
249.499943
11
123.999733
21
286.500024
0
LINE
8
0
10
85.999794
20
286.500024
11
123.999733
21
286.500024
0
LINE
8
0
10
94.999886
20
283.000018
11
94.916809
21
283.626219
0
LINE
8
0
10
94.916809
20
283.626219
11
94.678348
21
284.200016
0
LINE
8
0
10
94.678348
20
284.200016
11
94.300656
21
284.693428
0
LINE
8
0
10
94.300656
20
284.693428
11
93.799888
21
285.078476
0
LINE
8
0
10
93.799888
20
285.078476
11
93.216043
21
285.319630
0
LINE
8
0
10
93.216043
20
285.319630
11
92.599889
21
285.400015
0
LINE
8
0
10
92.599889
20
285.400015
11
91.983736
21
285.319630
0
LINE
8
0
10
91.983736
20
285.319630
11
91.399891
21
285.078476
0
LINE
8
0
10
91.399891
20
285.078476
11
90.899123
21
284.693428
0
LINE
8
0
10
90.899123
20
284.693428
11
90.521431
21
284.200016
0
LINE
8
0
10
90.521431
20
284.200016
11
90.282970
21
283.626219
0
LINE
8
0
10
90.282970
20
283.626219
11
90.199892
21
283.000018
0
LINE
8
0
10
90.199892
20
283.000018
11
90.282970
21
282.373816
0
LINE
8
0
10
90.282970
20
282.373816
11
90.521431
21
281.800019
0
LINE
8
0
10
90.521431
20
281.800019
11
90.899123
21
281.306607
0
LINE
8
0
10
90.899123
20
281.306607
11
91.399891
21
280.921559
0
LINE
8
0
10
91.399891
20
280.921559
11
91.983736
21
280.680405
0
LINE
8
0
10
91.983736
20
280.680405
11
92.599889
21
280.600021
0
LINE
8
0
10
92.599889
20
280.600021
11
93.216043
21
280.680405
0
LINE
8
0
10
93.216043
20
280.680405
11
93.799888
21
280.921559
0
LINE
8
0
10
93.799888
20
280.921559
11
94.300656
21
281.306607
0
LINE
8
0
10
94.300656
20
281.306607
11
94.678348
21
281.800019
0
LINE
8
0
10
94.678348
20
281.800019
11
94.916809
21
282.373816
0
LINE
8
0
10
94.916809
20
282.373816
11
94.999886
21
283.000018
0
LINE
8
0
10
94.999886
20
283.000018
11
94.999886
21
283.000018
0
LINE
8
0
10
119.699852
20
258.000049
11
119.616775
21
258.626251
0
LINE
8
0
10
119.616775
20
258.626251
11
119.378314
21
259.200048
0
LINE
8
0
10
119.378314
20
259.200048
11
119.000622
21
259.693460
0
LINE
8
0
10
119.000622
20
259.693460
11
118.499854
21
260.078507
0
LINE
8
0
10
118.499854
20
260.078507
11
117.916009
21
260.319661
0
LINE
8
0
10
117.916009
20
260.319661
11
117.299855
21
260.400046
0
LINE
8
0
10
117.299855
20
260.400046
11
116.683702
21
260.319661
0
LINE
8
0
10
116.683702
20
260.319661
11
116.099857
21
260.078507
0
LINE
8
0
10
116.099857
20
260.078507
11
115.599089
21
259.693460
0
LINE
8
0
10
115.599089
20
259.693460
11
115.221397
21
259.200048
0
LINE
8
0
10
115.221397
20
259.200048
11
114.982935
21
258.626251
0
LINE
8
0
10
114.982935
20
258.626251
11
114.899858
21
258.000049
0
LINE
8
0
10
114.899858
20
258.000049
11
114.982935
21
257.373848
0
LINE
8
0
10
114.982935
20
257.373848
11
115.221397
21
256.800051
0
LINE
8
0
10
115.221397
20
256.800051
11
115.599089
21
256.306638
0
LINE
8
0
10
115.599089
20
256.306638
11
116.099857
21
255.921591
0
LINE
8
0
10
116.099857
20
255.921591
11
116.683702
21
255.680437
0
LINE
8
0
10
116.683702
20
255.680437
11
117.299855
21
255.600052
0
LINE
8
0
10
117.299855
20
255.600052
11
117.916009
21
255.680437
0
LINE
8
0
10
117.916009
20
255.680437
11
118.499854
21
255.921591
0
LINE
8
0
10
118.499854
20
255.921591
11
119.000622
21
256.306638
0
LINE
8
0
10
119.000622
20
256.306638
11
119.378314
21
256.800051
0
LINE
8
0
10
119.378314
20
256.800051
11
119.616775
21
257.373848
0
LINE
8
0
10
119.616775
20
257.373848
11
119.699852
21
258.000049
0
LINE
8
0
10
119.699852
20
258.000049
11
119.699852
21
258.000049
0
LINE
8
0
10
94.999886
20
258.000049
11
94.916809
21
258.626251
0
LINE
8
0
10
94.916809
20
258.626251
11
94.678348
21
259.200048
0
LINE
8
0
10
94.678348
20
259.200048
11
94.300656
21
259.693460
0
LINE
8
0
10
94.300656
20
259.693460
11
93.799888
21
260.078507
0
LINE
8
0
10
93.799888
20
260.078507
11
93.216043
21
260.319661
0
LINE
8
0
10
93.216043
20
260.319661
11
92.599889
21
260.400046
0
LINE
8
0
10
92.599889
20
260.400046
11
91.983736
21
260.319661
0
LINE
8
0
10
91.983736
20
260.319661
11
91.399891
21
260.078507
0
LINE
8
0
10
91.399891
20
260.078507
11
90.899123
21
259.693460
0
LINE
8
0
10
90.899123
20
259.693460
11
90.521431
21
259.200048
0
LINE
8
0
10
90.521431
20
259.200048
11
90.282970
21
258.626251
0
LINE
8
0
10
90.282970
20
258.626251
11
90.199892
21
258.000049
0
LINE
8
0
10
90.199892
20
258.000049
11
90.282970
21
257.373848
0
LINE
8
0
10
90.282970
20
257.373848
11
90.521431
21
256.800051
0
LINE
8
0
10
90.521431
20
256.800051
11
90.899123
21
256.306638
0
LINE
8
0
10
90.899123
20
256.306638
11
91.399891
21
255.921591
0
LINE
8
0
10
91.399891
20
255.921591
11
91.983736
21
255.680437
0
LINE
8
0
10
91.983736
20
255.680437
11
92.599889
21
255.600052
0
LINE
8
0
10
92.599889
20
255.600052
11
93.216043
21
255.680437
0
LINE
8
0
10
93.216043
20
255.680437
11
93.799888
21
255.921591
0
LINE
8
0
10
93.799888
20
255.921591
11
94.300656
21
256.306638
0
LINE
8
0
10
94.300656
20
256.306638
11
94.678348
21
256.800051
0
LINE
8
0
10
94.678348
20
256.800051
11
94.916809
21
257.373848
0
LINE
8
0
10
94.916809
20
257.373848
11
94.999886
21
258.000049
0
LINE
8
0
10
94.999886
20
258.000049
11
94.999886
21
258.000049
0
LINE
8
0
10
119.815775
20
283.000018
11
119.626847
21
283.933843
0
LINE
8
0
10
119.626847
20
283.933843
11
119.112434
21
284.696343
0
LINE
8
0
10
119.112434
20
284.696343
11
118.349692
21
285.210398
0
LINE
8
0
10
118.349692
20
285.210398
11
117.415779
21
285.398888
0
LINE
8
0
10
117.415779
20
285.398888
11
116.481865
21
285.210398
0
LINE
8
0
10
116.481865
20
285.210398
11
115.719123
21
284.696343
0
LINE
8
0
10
115.719123
20
284.696343
11
115.204710
21
283.933843
0
LINE
8
0
10
115.204710
20
283.933843
11
115.015782
21
283.000018
0
LINE
8
0
10
115.015782
20
283.000018
11
115.204710
21
282.066192
0
LINE
8
0
10
115.204710
20
282.066192
11
115.719123
21
281.303692
0
LINE
8
0
10
115.719123
20
281.303692
11
116.481865
21
280.789637
0
LINE
8
0
10
116.481865
20
280.789637
11
117.415779
21
280.601148
0
LINE
8
0
10
117.415779
20
280.601148
11
118.349692
21
280.789637
0
LINE
8
0
10
118.349692
20
280.789637
11
119.112434
21
281.303692
0
LINE
8
0
10
119.112434
20
281.303692
11
119.626847
21
282.066192
0
LINE
8
0
10
119.626847
20
282.066192
11
119.815775
21
283.000018
0
LINE
8
0
10
119.815775
20
283.000018
11
119.815775
21
283.000018
0
LINE
8
0
10
86.115725
20
286.500024
11
86.115725
21
249.499943
0
LINE
8
0
10
102.115802
20
233.500080
11
102.033196
21
235.135985
0
LINE
8
0
10
102.033196
20
235.135985
11
101.790739
21
236.724634
0
LINE
8
0
10
101.790739
20
236.724634
11
101.396475
21
238.257984
0
LINE
8
0
10
101.396475
20
238.257984
11
100.858444
21
239.727994
0
LINE
8
0
10
100.858444
20
239.727994
11
100.184691
21
241.126620
0
LINE
8
0
10
100.184691
20
241.126620
11
99.383257
21
242.445821
0
LINE
8
0
10
99.383257
20
242.445821
11
97.429517
21
244.813774
0
LINE
8
0
10
97.429517
20
244.813774
11
95.061563
21
246.767514
0
LINE
8
0
10
95.061563
20
246.767514
11
93.742363
21
247.568948
0
LINE
8
0
10
93.742363
20
247.568948
11
92.343737
21
248.242702
0
LINE
8
0
10
92.343737
20
248.242702
11
90.873727
21
248.780732
0
LINE
8
0
10
90.873727
20
248.780732
11
89.340377
21
249.174997
0
LINE
8
0
10
89.340377
20
249.174997
11
87.751728
21
249.417453
0
LINE
8
0
10
87.751728
20
249.417453
11
86.115823
21
249.500060
0
LINE
8
0
10
102.115852
20
233.500080
11
102.115852
21
13.499315
0
LINE
8
0
10
102.115802
20
13.500347
11
102.219649
21
12.717595
0
LINE
8
0
10
102.219649
20
12.717595
11
102.517726
21
12.000349
0
LINE
8
0
10
102.517726
20
12.000349
11
102.989841
21
11.383584
0
LINE
8
0
10
102.989841
20
11.383584
11
103.615801
21
10.902274
0
LINE
8
0
10
103.615801
20
10.902274
11
104.345607
21
10.600831
0
LINE
8
0
10
104.345607
20
10.600831
11
105.115799
21
10.500351
0
LINE
8
0
10
105.115799
20
10.500351
11
105.885991
21
10.600831
0
LINE
8
0
10
105.885991
20
10.600831
11
106.615797
21
10.902274
0
LINE
8
0
10
106.615797
20
10.902274
11
107.241758
21
11.383584
0
LINE
8
0
10
107.241758
20
11.383584
11
107.713873
21
12.000349
0
LINE
8
0
10
107.713873
20
12.000349
11
108.011950
21
12.717595
0
LINE
8
0
10
108.011950
20
12.717595
11
108.115796
21
13.500347
0
LINE
8
0
10
108.115801
20
233.500080
11
108.115801
21
13.499315
0
LINE
8
0
10
124.115773
20
249.500060
11
122.479868
21
249.417453
0
LINE
8
0
10
122.479868
20
249.417453
11
120.891219
21
249.174996
0
LINE
8
0
10
120.891219
20
249.174996
11
119.357869
21
248.780731
0
LINE
8
0
10
119.357869
20
248.780731
11
117.887860
21
248.242701
0
LINE
8
0
10
117.887860
20
248.242701
11
116.489234
21
247.568947
0
LINE
8
0
10
116.489234
20
247.568947
11
115.170033
21
246.767513
0
LINE
8
0
10
115.170033
20
246.767513
11
112.802080
21
244.813773
0
LINE
8
0
10
112.802080
20
244.813773
11
110.848341
21
242.445820
0
LINE
8
0
10
110.848341
20
242.445820
11
110.046907
21
241.126619
0
LINE
8
0
10
110.046907
20
241.126619
11
109.373153
21
239.727993
0
LINE
8
0
10
109.373153
20
239.727993
11
108.835123
21
238.257984
0
LINE
8
0
10
108.835123
20
238.257984
11
108.440859
21
236.724633
0
LINE
8
0
10
108.440859
20
236.724633
11
108.198402
21
235.135985
0
LINE
8
0
10
108.198402
20
235.135985
11
108.115796
21
233.500080
0
LINE
8
0
10
124.115664
20
249.499943
11
124.115664
21
286.500024
0
LINE
8
0
10
86.115725
20
286.500024
11
124.115664
21
286.500024
0
LINE
8
0
10
95.115801
20
283.000018
11
94.926873
21
283.933843
0
LINE
8
0
10
94.926873
20
283.933843
11
94.412460
21
284.696343
0
LINE
8
0
10
94.412460
20
284.696343
11
93.649718
21
285.210398
0
LINE
8
0
10
93.649718
20
285.210398
11
92.715805
21
285.398888
0
LINE
8
0
10
92.715805
20
285.398888
11
91.781891
21
285.210398
0
LINE
8
0
10
91.781891
20
285.210398
11
91.019149
21
284.696343
0
LINE
8
0
10
91.019149
20
284.696343
11
90.504736
21
283.933843
0
LINE
8
0
10
90.504736
20
283.933843
11
90.315808
21
283.000018
0
LINE
8
0
10
90.315808
20
283.000018
11
90.504736
21
282.066192
0
LINE
8
0
10
90.504736
20
282.066192
11
91.019149
21
281.303692
0
LINE
8
0
10
91.019149
20
281.303692
11
91.781891
21
280.789637
0
LINE
8
0
10
91.781891
20
280.789637
11
92.715805
21
280.601148
0
LINE
8
0
10
92.715805
20
280.601148
11
93.649718
21
280.789637
0
LINE
8
0
10
93.649718
20
280.789637
11
94.412460
21
281.303692
0
LINE
8
0
10
94.412460
20
281.303692
11
94.926873
21
282.066192
0
LINE
8
0
10
94.926873
20
282.066192
11
95.115801
21
283.000018
0
LINE
8
0
10
95.115801
20
283.000018
11
95.115801
21
283.000018
0
LINE
8
0
10
119.815775
20
258.000050
11
119.626847
21
258.933876
0
LINE
8
0
10
119.626847
20
258.933876
11
119.112434
21
259.696376
0
LINE
8
0
10
119.112434
20
259.696376
11
118.349692
21
260.210431
0
LINE
8
0
10
118.349692
20
260.210431
11
117.415779
21
260.398920
0
LINE
8
0
10
117.415779
20
260.398920
11
116.481865
21
260.210431
0
LINE
8
0
10
116.481865
20
260.210431
11
115.719123
21
259.696376
0
LINE
8
0
10
115.719123
20
259.696376
11
115.204710
21
258.933876
0
LINE
8
0
10
115.204710
20
258.933876
11
115.015782
21
258.000050
0
LINE
8
0
10
115.015782
20
258.000050
11
115.204710
21
257.066225
0
LINE
8
0
10
115.204710
20
257.066225
11
115.719123
21
256.303725
0
LINE
8
0
10
115.719123
20
256.303725
11
116.481865
21
255.789670
0
LINE
8
0
10
116.481865
20
255.789670
11
117.415779
21
255.601180
0
LINE
8
0
10
117.415779
20
255.601180
11
118.349692
21
255.789670
0
LINE
8
0
10
118.349692
20
255.789670
11
119.112434
21
256.303725
0
LINE
8
0
10
119.112434
20
256.303725
11
119.626847
21
257.066225
0
LINE
8
0
10
119.626847
20
257.066225
11
119.815775
21
258.000050
0
LINE
8
0
10
119.815775
20
258.000050
11
119.815775
21
258.000050
0
LINE
8
0
10
95.115801
20
258.000050
11
94.926873
21
258.933876
0
LINE
8
0
10
94.926873
20
258.933876
11
94.412460
21
259.696376
0
LINE
8
0
10
94.412460
20
259.696376
11
93.649718
21
260.210431
0
LINE
8
0
10
93.649718
20
260.210431
11
92.715805
21
260.398920
0
LINE
8
0
10
92.715805
20
260.398920
11
91.781891
21
260.210431
0
LINE
8
0
10
91.781891
20
260.210431
11
91.019149
21
259.696376
0
LINE
8
0
10
91.019149
20
259.696376
11
90.504736
21
258.933876
0
LINE
8
0
10
90.504736
20
258.933876
11
90.315808
21
258.000050
0
LINE
8
0
10
90.315808
20
258.000050
11
90.504736
21
257.066225
0
LINE
8
0
10
90.504736
20
257.066225
11
91.019149
21
256.303725
0
LINE
8
0
10
91.019149
20
256.303725
11
91.781891
21
255.789670
0
LINE
8
0
10
91.781891
20
255.789670
11
92.715805
21
255.601180
0
LINE
8
0
10
92.715805
20
255.601180
11
93.649718
21
255.789670
0
LINE
8
0
10
93.649718
20
255.789670
11
94.412460
21
256.303725
0
LINE
8
0
10
94.412460
20
256.303725
11
94.926873
21
257.066225
0
LINE
8
0
10
94.926873
20
257.066225
11
95.115801
21
258.000050
0
LINE
8
0
10
95.115801
20
258.000050
11
95.115801
21
258.000050
 0 
ENDSEC
 0 
EOF