999
"DXF R12 Output" (www.mydxf.blogspot.com)
 0 
SECTION
 2 
HEADER
 9 
$ACADVER
 1 
AC1009
 9 
$EXTMIN
 10 
 0 
 20 
 0 
 9 
$EXTMAX
 10 
 8.5 
 20 
 11 
 0 
ENDSEC
 0 
SECTION
 2 
ENTITIES
0
LINE
8
Layer 1
10
0.793749
20
371.347749
11
-0.793749
21
369.760251
0
LINE
8
Layer 1
10
0.000000
20
371.876915
11
0.000000
21
369.231085
0
LINE
8
Layer 1
10
2.116664
20
369.495668
11
1.058332
21
368.437336
0
LINE
8
Layer 1
10
1.587498
20
370.024834
11
0.529166
21
368.966502
0
LINE
8
Layer 1
10
1.058332
20
370.554000
11
0.000000
21
369.495668
0
LINE
8
0
10
125.099846
20
359.208181
11
124.910918
21
360.142006
0
LINE
8
0
10
124.910918
20
360.142006
11
124.396505
21
360.904506
0
LINE
8
0
10
124.396505
20
360.904506
11
123.633763
21
361.418561
0
LINE
8
0
10
123.633763
20
361.418561
11
122.699849
21
361.607051
0
LINE
8
0
10
122.699849
20
361.607051
11
121.765935
21
361.418561
0
LINE
8
0
10
121.765935
20
361.418561
11
121.003193
21
360.904506
0
LINE
8
0
10
121.003193
20
360.904506
11
120.488780
21
360.142006
0
LINE
8
0
10
120.488780
20
360.142006
11
120.299852
21
359.208181
0
LINE
8
0
10
120.299852
20
359.208181
11
120.488780
21
358.274356
0
LINE
8
0
10
120.488780
20
358.274356
11
121.003193
21
357.511855
0
LINE
8
0
10
121.003193
20
357.511855
11
121.765935
21
356.997800
0
LINE
8
0
10
121.765935
20
356.997800
11
122.699849
21
356.809311
0
LINE
8
0
10
122.699849
20
356.809311
11
123.633763
21
356.997800
0
LINE
8
0
10
123.633763
20
356.997800
11
124.396505
21
357.511855
0
LINE
8
0
10
124.396505
20
357.511855
11
124.910918
21
358.274356
0
LINE
8
0
10
124.910918
20
358.274356
11
125.099846
21
359.208181
0
LINE
8
0
10
125.099846
20
359.208181
11
125.099846
21
359.208181
0
LINE
8
0
10
91.399933
20
362.708056
11
91.399933
21
325.708240
0
LINE
8
0
10
106.899866
20
310.208243
11
106.824020
21
311.740225
0
LINE
8
0
10
106.824020
20
311.740225
11
106.599287
21
313.246260
0
LINE
8
0
10
106.599287
20
313.246260
11
105.720001
21
316.139829
0
LINE
8
0
10
105.720001
20
316.139829
11
104.295688
21
318.807640
0
LINE
8
0
10
104.295688
20
318.807640
11
103.389671
21
320.031478
0
LINE
8
0
10
103.389671
20
320.031478
11
102.360027
21
321.168385
0
LINE
8
0
10
102.360027
20
321.168385
11
101.223120
21
322.198029
0
LINE
8
0
10
101.223120
20
322.198029
11
99.999283
21
323.104045
0
LINE
8
0
10
99.999283
20
323.104045
11
97.331471
21
324.528358
0
LINE
8
0
10
97.331471
20
324.528358
11
94.437902
21
325.407644
0
LINE
8
0
10
94.437902
20
325.407644
11
92.931868
21
325.632377
0
LINE
8
0
10
92.931868
20
325.632377
11
91.399885
21
325.708224
0
LINE
8
0
10
106.899734
20
310.208253
11
106.899734
21
50.208545
0
LINE
8
0
10
106.899866
20
50.208572
11
107.175467
21
48.846833
0
LINE
8
0
10
107.175467
20
48.846833
11
107.925671
21
47.734945
0
LINE
8
0
10
107.925671
20
47.734945
11
109.037972
21
46.985353
0
LINE
8
0
10
109.037972
20
46.985353
11
110.399862
21
46.710501
0
LINE
8
0
10
110.399862
20
46.710501
11
111.761751
21
46.985353
0
LINE
8
0
10
111.761751
20
46.985353
11
112.874052
21
47.734945
0
LINE
8
0
10
112.874052
20
47.734945
11
113.624256
21
48.846833
0
LINE
8
0
10
113.624256
20
48.846833
11
113.899857
21
50.208572
0
LINE
8
0
10
113.899807
20
310.208253
11
113.899807
21
50.208545
0
LINE
8
0
10
129.399835
20
325.708224
11
127.815052
21
325.628199
0
LINE
8
0
10
127.815052
20
325.628199
11
126.276049
21
325.393319
0
LINE
8
0
10
126.276049
20
325.393319
11
124.790616
21
325.011375
0
LINE
8
0
10
124.790616
20
325.011375
11
123.366544
21
324.490158
0
LINE
8
0
10
123.366544
20
324.490158
11
120.733650
21
323.061070
0
LINE
8
0
10
120.733650
20
323.061070
11
118.439695
21
321.168384
0
LINE
8
0
10
118.439695
20
321.168384
11
116.547009
21
318.874429
0
LINE
8
0
10
116.547009
20
318.874429
11
115.117922
21
316.241534
0
LINE
8
0
10
115.117922
20
316.241534
11
114.596705
21
314.817463
0
LINE
8
0
10
114.596705
20
314.817463
11
114.214761
21
313.332029
0
LINE
8
0
10
114.214761
20
313.332029
11
113.979881
21
311.793026
0
LINE
8
0
10
113.979881
20
311.793026
11
113.899857
21
310.208243
0
LINE
8
0
10
129.399872
20
325.708240
11
129.399872
21
362.708056
0
LINE
8
0
10
91.399933
20
362.708056
11
129.399872
21
362.708056
0
LINE
8
0
10
100.399880
20
359.208181
11
100.210879
21
360.141925
0
LINE
8
0
10
100.210879
20
360.141925
11
99.696449
21
360.904343
0
LINE
8
0
10
99.696449
20
360.904343
11
98.933736
21
361.418334
0
LINE
8
0
10
98.933736
20
361.418334
11
97.999883
21
361.606798
0
LINE
8
0
10
97.999883
20
361.606798
11
97.066030
21
361.418334
0
LINE
8
0
10
97.066030
20
361.418334
11
96.303317
21
360.904343
0
LINE
8
0
10
96.303317
20
360.904343
11
95.788887
21
360.141925
0
LINE
8
0
10
95.788887
20
360.141925
11
95.599886
21
359.208181
0
LINE
8
0
10
95.599886
20
359.208181
11
95.788887
21
358.274437
0
LINE
8
0
10
95.788887
20
358.274437
11
96.303317
21
357.512019
0
LINE
8
0
10
96.303317
20
357.512019
11
97.066030
21
356.998028
0
LINE
8
0
10
97.066030
20
356.998028
11
97.999883
21
356.809564
0
LINE
8
0
10
97.999883
20
356.809564
11
98.933736
21
356.998028
0
LINE
8
0
10
98.933736
20
356.998028
11
99.696449
21
357.512019
0
LINE
8
0
10
99.696449
20
357.512019
11
100.210879
21
358.274437
0
LINE
8
0
10
100.210879
20
358.274437
11
100.399880
21
359.208181
0
LINE
8
0
10
100.399880
20
359.208181
11
100.399880
21
359.208181
0
LINE
8
0
10
125.099846
20
334.208212
11
124.910918
21
335.142037
0
LINE
8
0
10
124.910918
20
335.142037
11
124.396505
21
335.904538
0
LINE
8
0
10
124.396505
20
335.904538
11
123.633763
21
336.418593
0
LINE
8
0
10
123.633763
20
336.418593
11
122.699849
21
336.607082
0
LINE
8
0
10
122.699849
20
336.607082
11
121.765935
21
336.418593
0
LINE
8
0
10
121.765935
20
336.418593
11
121.003193
21
335.904538
0
LINE
8
0
10
121.003193
20
335.904538
11
120.488780
21
335.142037
0
LINE
8
0
10
120.488780
20
335.142037
11
120.299852
21
334.208212
0
LINE
8
0
10
120.299852
20
334.208212
11
120.488780
21
333.274387
0
LINE
8
0
10
120.488780
20
333.274387
11
121.003193
21
332.511887
0
LINE
8
0
10
121.003193
20
332.511887
11
121.765935
21
331.997832
0
LINE
8
0
10
121.765935
20
331.997832
11
122.699849
21
331.809342
0
LINE
8
0
10
122.699849
20
331.809342
11
123.633763
21
331.997832
0
LINE
8
0
10
123.633763
20
331.997832
11
124.396505
21
332.511887
0
LINE
8
0
10
124.396505
20
332.511887
11
124.910918
21
333.274387
0
LINE
8
0
10
124.910918
20
333.274387
11
125.099846
21
334.208212
0
LINE
8
0
10
125.099846
20
334.208212
11
125.099846
21
334.208212
0
LINE
8
0
10
100.399880
20
334.208212
11
100.210879
21
335.141956
0
LINE
8
0
10
100.210879
20
335.141956
11
99.696449
21
335.904374
0
LINE
8
0
10
99.696449
20
335.904374
11
98.933736
21
336.418365
0
LINE
8
0
10
98.933736
20
336.418365
11
97.999883
21
336.606829
0
LINE
8
0
10
97.999883
20
336.606829
11
97.066030
21
336.418365
0
LINE
8
0
10
97.066030
20
336.418365
11
96.303317
21
335.904374
0
LINE
8
0
10
96.303317
20
335.904374
11
95.788887
21
335.141956
0
LINE
8
0
10
95.788887
20
335.141956
11
95.599886
21
334.208212
0
LINE
8
0
10
95.599886
20
334.208212
11
95.788887
21
333.274468
0
LINE
8
0
10
95.788887
20
333.274468
11
96.303317
21
332.512050
0
LINE
8
0
10
96.303317
20
332.512050
11
97.066030
21
331.998059
0
LINE
8
0
10
97.066030
20
331.998059
11
97.999883
21
331.809595
0
LINE
8
0
10
97.999883
20
331.809595
11
98.933736
21
331.998059
0
LINE
8
0
10
98.933736
20
331.998059
11
99.696449
21
332.512050
0
LINE
8
0
10
99.696449
20
332.512050
11
100.210879
21
333.274468
0
LINE
8
0
10
100.210879
20
333.274468
11
100.399880
21
334.208212
0
LINE
8
0
10
100.399880
20
334.208212
11
100.399880
21
334.208212
 0 
ENDSEC
 0 
EOF