999
"DXF R12 Output" (www.mydxf.blogspot.com)
 0 
SECTION
 2 
HEADER
 9 
$ACADVER
 1 
AC1009
 9 
$EXTMIN
 10 
 0 
 20 
 0 
 9 
$EXTMAX
 10 
 8.5 
 20 
 11 
 0 
ENDSEC
 0 
SECTION
 2 
ENTITIES
0
LINE
8
Layer 1
10
0.793749
20
344.889749
11
-0.793749
21
343.302251
0
LINE
8
Layer 1
10
0.000000
20
345.418915
11
0.000000
21
342.773085
0
LINE
8
Layer 1
10
2.116664
20
343.037668
11
1.058332
21
341.979336
0
LINE
8
Layer 1
10
1.587498
20
343.566834
11
0.529166
21
342.508502
0
LINE
8
Layer 1
10
1.058332
20
344.096000
11
0.000000
21
343.037668
0
LINE
8
0
10
132.508170
20
320.633528
11
132.319281
21
321.567354
0
LINE
8
0
10
132.319281
20
321.567354
11
131.804863
21
322.329854
0
LINE
8
0
10
131.804863
20
322.329854
11
131.042099
21
322.843908
0
LINE
8
0
10
131.042099
20
322.843908
11
130.108172
21
323.032397
0
LINE
8
0
10
130.108172
20
323.032397
11
129.174259
21
322.843908
0
LINE
8
0
10
129.174259
20
322.843908
11
128.411517
21
322.329854
0
LINE
8
0
10
128.411517
20
322.329854
11
127.897104
21
321.567354
0
LINE
8
0
10
127.897104
20
321.567354
11
127.708176
21
320.633528
0
LINE
8
0
10
127.708176
20
320.633528
11
127.897065
21
319.699703
0
LINE
8
0
10
127.897065
20
319.699703
11
128.411483
21
318.937203
0
LINE
8
0
10
128.411483
20
318.937203
11
129.174246
21
318.423149
0
LINE
8
0
10
129.174246
20
318.423149
11
130.108172
21
318.234659
0
LINE
8
0
10
130.108172
20
318.234659
11
131.042086
21
318.423149
0
LINE
8
0
10
131.042086
20
318.423149
11
131.804828
21
318.937203
0
LINE
8
0
10
131.804828
20
318.937203
11
132.319242
21
319.699703
0
LINE
8
0
10
132.319242
20
319.699703
11
132.508170
21
320.633528
0
LINE
8
0
10
132.508170
20
320.633528
11
132.508170
21
320.633528
0
LINE
8
0
10
98.808257
20
324.133477
11
98.808257
21
287.133582
0
LINE
8
0
10
114.308190
20
271.633590
11
114.228166
21
273.218373
0
LINE
8
0
10
114.228166
20
273.218373
11
113.993286
21
274.757377
0
LINE
8
0
10
113.993286
20
274.757377
11
113.611342
21
276.242810
0
LINE
8
0
10
113.611342
20
276.242810
11
113.090125
21
277.666882
0
LINE
8
0
10
113.090125
20
277.666882
11
111.661037
21
280.299777
0
LINE
8
0
10
111.661037
20
280.299777
11
109.768351
21
282.593732
0
LINE
8
0
10
109.768351
20
282.593732
11
107.474396
21
284.486418
0
LINE
8
0
10
107.474396
20
284.486418
11
104.841501
21
285.915506
0
LINE
8
0
10
104.841501
20
285.915506
11
103.417429
21
286.436723
0
LINE
8
0
10
103.417429
20
286.436723
11
101.931996
21
286.818667
0
LINE
8
0
10
101.931996
20
286.818667
11
100.392992
21
287.053547
0
LINE
8
0
10
100.392992
20
287.053547
11
98.808209
21
287.133571
0
LINE
8
0
10
114.308058
20
271.633595
11
114.308058
21
31.633796
0
LINE
8
0
10
114.308190
20
31.633902
11
114.583789
21
30.272159
0
LINE
8
0
10
114.583789
20
30.272159
11
115.333994
21
29.160269
0
LINE
8
0
10
115.333994
20
29.160269
11
116.446296
21
28.410675
0
LINE
8
0
10
116.446296
20
28.410675
11
117.808187
21
28.135823
0
LINE
8
0
10
117.808187
20
28.135823
11
119.170076
21
28.410675
0
LINE
8
0
10
119.170076
20
28.410675
11
120.282376
21
29.160269
0
LINE
8
0
10
120.282376
20
29.160269
11
121.032580
21
30.272159
0
LINE
8
0
10
121.032580
20
30.272159
11
121.308181
21
31.633902
0
LINE
8
0
10
121.308131
20
271.633595
11
121.308131
21
31.633796
0
LINE
8
0
10
136.808159
20
287.133571
11
135.223376
21
287.053547
0
LINE
8
0
10
135.223376
20
287.053547
11
133.684373
21
286.818667
0
LINE
8
0
10
133.684373
20
286.818667
11
132.198939
21
286.436723
0
LINE
8
0
10
132.198939
20
286.436723
11
130.774868
21
285.915506
0
LINE
8
0
10
130.774868
20
285.915506
11
128.141973
21
284.486418
0
LINE
8
0
10
128.141973
20
284.486418
11
125.848019
21
282.593732
0
LINE
8
0
10
125.848019
20
282.593732
11
123.955333
21
280.299777
0
LINE
8
0
10
123.955333
20
280.299777
11
122.526246
21
277.666882
0
LINE
8
0
10
122.526246
20
277.666882
11
122.005029
21
276.242810
0
LINE
8
0
10
122.005029
20
276.242810
11
121.623085
21
274.757377
0
LINE
8
0
10
121.623085
20
274.757377
11
121.388205
21
273.218373
0
LINE
8
0
10
121.388205
20
273.218373
11
121.308181
21
271.633590
0
LINE
8
0
10
136.808196
20
287.133582
11
136.808196
21
324.133477
0
LINE
8
0
10
98.808257
20
324.133477
11
136.808196
21
324.133477
0
LINE
8
0
10
107.808204
20
320.633528
11
107.619189
21
321.567273
0
LINE
8
0
10
107.619189
20
321.567273
11
107.104761
21
322.329690
0
LINE
8
0
10
107.104761
20
322.329690
11
106.342056
21
322.843681
0
LINE
8
0
10
106.342056
20
322.843681
11
105.408208
21
323.032144
0
LINE
8
0
10
105.408208
20
323.032144
11
104.474355
21
322.843681
0
LINE
8
0
10
104.474355
20
322.843681
11
103.711641
21
322.329690
0
LINE
8
0
10
103.711641
20
322.329690
11
103.197211
21
321.567273
0
LINE
8
0
10
103.197211
20
321.567273
11
103.008210
21
320.633528
0
LINE
8
0
10
103.008210
20
320.633528
11
103.197225
21
319.699784
0
LINE
8
0
10
103.197225
20
319.699784
11
103.711653
21
318.937367
0
LINE
8
0
10
103.711653
20
318.937367
11
104.474359
21
318.423376
0
LINE
8
0
10
104.474359
20
318.423376
11
105.408208
21
318.234913
0
LINE
8
0
10
105.408208
20
318.234913
11
106.342060
21
318.423376
0
LINE
8
0
10
106.342060
20
318.423376
11
107.104773
21
318.937367
0
LINE
8
0
10
107.104773
20
318.937367
11
107.619203
21
319.699784
0
LINE
8
0
10
107.619203
20
319.699784
11
107.808204
21
320.633528
0
LINE
8
0
10
107.808204
20
320.633528
11
107.808204
21
320.633528
0
LINE
8
0
10
132.508170
20
295.633562
11
132.319281
21
296.567388
0
LINE
8
0
10
132.319281
20
296.567388
11
131.804863
21
297.329887
0
LINE
8
0
10
131.804863
20
297.329887
11
131.042099
21
297.843941
0
LINE
8
0
10
131.042099
20
297.843941
11
130.108172
21
298.032430
0
LINE
8
0
10
130.108172
20
298.032430
11
129.174259
21
297.843941
0
LINE
8
0
10
129.174259
20
297.843941
11
128.411517
21
297.329887
0
LINE
8
0
10
128.411517
20
297.329887
11
127.897104
21
296.567388
0
LINE
8
0
10
127.897104
20
296.567388
11
127.708176
21
295.633562
0
LINE
8
0
10
127.708176
20
295.633562
11
127.897065
21
294.699737
0
LINE
8
0
10
127.897065
20
294.699737
11
128.411483
21
293.937237
0
LINE
8
0
10
128.411483
20
293.937237
11
129.174246
21
293.423183
0
LINE
8
0
10
129.174246
20
293.423183
11
130.108172
21
293.234694
0
LINE
8
0
10
130.108172
20
293.234694
11
131.042086
21
293.423183
0
LINE
8
0
10
131.042086
20
293.423183
11
131.804828
21
293.937237
0
LINE
8
0
10
131.804828
20
293.937237
11
132.319242
21
294.699737
0
LINE
8
0
10
132.319242
20
294.699737
11
132.508170
21
295.633562
0
LINE
8
0
10
132.508170
20
295.633562
11
132.508170
21
295.633562
0
LINE
8
0
10
107.808204
20
295.633562
11
107.619189
21
296.567307
0
LINE
8
0
10
107.619189
20
296.567307
11
107.104761
21
297.329725
0
LINE
8
0
10
107.104761
20
297.329725
11
106.342056
21
297.843715
0
LINE
8
0
10
106.342056
20
297.843715
11
105.408208
21
298.032179
0
LINE
8
0
10
105.408208
20
298.032179
11
104.474355
21
297.843715
0
LINE
8
0
10
104.474355
20
297.843715
11
103.711641
21
297.329725
0
LINE
8
0
10
103.711641
20
297.329725
11
103.197211
21
296.567307
0
LINE
8
0
10
103.197211
20
296.567307
11
103.008210
21
295.633562
0
LINE
8
0
10
103.008210
20
295.633562
11
103.197225
21
294.699817
0
LINE
8
0
10
103.197225
20
294.699817
11
103.711653
21
293.937400
0
LINE
8
0
10
103.711653
20
293.937400
11
104.474359
21
293.423409
0
LINE
8
0
10
104.474359
20
293.423409
11
105.408208
21
293.234945
0
LINE
8
0
10
105.408208
20
293.234945
11
106.342060
21
293.423409
0
LINE
8
0
10
106.342060
20
293.423409
11
107.104773
21
293.937400
0
LINE
8
0
10
107.104773
20
293.937400
11
107.619203
21
294.699817
0
LINE
8
0
10
107.619203
20
294.699817
11
107.808204
21
295.633562
0
LINE
8
0
10
107.808204
20
295.633562
11
107.808204
21
295.633562
 0 
ENDSEC
 0 
EOF